<?xml version="1.0" encoding="UTF-8"?>
<svg width="900" height="876" viewBox="0 0 900 876" xmlns="http://www.w3.org/2000/svg">
    <g id="kubernetes">
        <g id="g1350">
            <path id="path3055" fill="#326ce5" stroke="none" d="M 437.642456 99.140381 C 431.631012 99.443176 425.741119 100.933655 420.318268 103.524292 L 183.916992 216.479309 C 171.522461 222.398621 162.519913 233.593323 159.457504 246.894958 L 101.135719 500.620422 C 98.414871 512.430969 100.628761 524.830933 107.273262 534.996704 C 108.070724 536.226807 108.928391 537.417358 109.84317 538.564331 L 273.470703 742.010315 C 282.050385 752.674316 295.058868 758.883667 308.814484 758.880981 L 571.217163 758.820557 C 584.967651 758.830566 597.97522 752.632813 606.560974 741.980103 L 770.128052 538.503845 C 778.712341 527.834473 781.928589 513.867676 778.865723 500.559906 L 720.453186 246.834473 C 717.390747 233.532837 708.388306 222.338135 695.993774 216.418823 L 459.562256 103.524292 C 452.741089 100.265503 445.203888 98.758057 437.642456 99.140381 Z"/>
            <path id="path3059" fill="#ffffff" stroke="none" d="M 439.984894 185.486511 C 432.170471 185.487305 425.834351 192.525879 425.835297 201.208313 C 425.835297 201.341492 425.862579 201.468872 425.865509 201.601318 C 425.853973 202.781067 425.797028 204.202271 425.835297 205.229431 C 426.021667 210.237183 427.113251 214.069885 427.770264 218.683594 C 428.960571 228.558533 429.957947 236.744202 429.342468 244.352478 C 428.743866 247.221497 426.630707 249.845337 424.746857 251.669128 L 424.414276 257.655518 C 415.92276 258.35907 407.37442 259.647339 398.836151 261.585999 C 362.095917 269.927917 330.463226 288.852905 306.379944 314.405151 C 304.81723 313.33905 302.083252 311.377686 301.270325 310.777039 C 298.744019 311.118164 296.190765 311.897644 292.865204 309.960693 C 286.533051 305.698242 280.765839 299.814636 273.787415 292.727173 C 270.589874 289.336914 268.274323 286.108521 264.475281 282.840637 C 263.612549 282.09845 262.295929 281.094727 261.330933 280.331177 C 258.36084 277.963135 254.857697 276.72821 251.474579 276.612366 C 247.124817 276.46344 242.937454 278.164124 240.19722 281.601013 C 235.325668 287.711121 236.885361 297.049988 243.674149 302.462585 C 243.743073 302.517517 243.816391 302.56012 243.885788 302.61377 C 244.81868 303.370056 245.961014 304.338928 246.818497 304.972046 C 250.84993 307.948608 254.532532 309.472351 258.549377 311.835205 C 267.012054 317.061462 274.02771 321.394897 279.592377 326.619751 C 281.765411 328.936096 282.145203 333.0177 282.434418 334.78302 L 286.969543 338.834351 C 262.691772 375.370514 251.455841 420.500092 258.095917 466.483215 L 252.170013 468.206543 C 250.608185 470.223389 248.401215 473.396912 246.09288 474.344086 C 238.812363 476.637238 230.618546 477.479309 220.726379 478.516388 C 216.082123 478.902588 212.074875 478.672119 207.15123 479.604828 C 206.067566 479.81015 204.557648 480.203522 203.371948 480.481628 C 203.33075 480.489899 203.292221 480.502502 203.251007 480.511871 C 203.18634 480.526794 203.101471 480.558197 203.039368 480.572266 C 194.699432 482.587341 189.341843 490.253021 191.066635 497.805756 C 192.791824 505.360291 200.93811 509.954376 209.328094 508.145844 C 209.388687 508.132019 209.476593 508.1297 209.539719 508.115692 C 209.634445 508.093964 209.717834 508.048004 209.811829 508.024994 C 210.981384 507.76828 212.447067 507.482635 213.470184 507.208679 C 218.310883 505.912598 221.816711 504.00827 226.168549 502.340973 C 235.53093 498.983002 243.285202 496.177826 250.839661 495.084778 C 253.994827 494.837677 257.319061 497.031525 258.972656 497.957001 L 265.140442 496.898834 C 279.333771 540.903198 309.0784 576.470459 346.742554 598.788086 L 344.172668 604.955811 C 345.098938 607.35083 346.120636 610.591248 345.430603 612.956421 C 342.684174 620.078308 337.97995 627.595581 332.623199 635.976196 C 330.02948 639.848022 327.374969 642.852783 325.034424 647.283752 C 324.474304 648.343994 323.760986 649.972717 323.220337 651.093323 C 319.583679 658.874268 322.251282 667.835938 329.236969 671.199036 C 336.26651 674.583191 344.992096 671.013916 348.76825 663.217224 C 348.773773 663.206238 348.793091 663.19812 348.798462 663.187012 C 348.802124 663.17865 348.794769 663.165161 348.798462 663.156738 C 349.336304 662.051392 350.098328 660.598389 350.552032 659.558899 C 352.556824 654.966187 353.223877 651.030396 354.633667 646.58844 C 358.377502 637.184265 360.434448 627.316895 365.588196 621.168396 C 366.999451 619.484741 369.300293 618.837219 371.685791 618.198547 L 374.890564 612.393555 C 407.725647 624.996948 444.479248 628.378967 481.194061 620.042786 C 489.569611 618.141113 497.655426 615.679932 505.472137 612.726074 C 506.372833 614.32373 508.046753 617.39502 508.495544 618.168274 C 510.919708 618.95697 513.565613 619.364258 515.721497 622.552246 C 519.577393 629.139893 522.214233 636.933228 525.426697 646.346558 C 526.836731 650.788391 527.533508 654.724426 529.538574 659.317078 C 529.995544 660.363831 530.753723 661.83728 531.292114 662.945129 C 535.060364 670.767151 543.813538 674.348633 550.853699 670.957214 C 557.83844 667.592346 560.509033 658.631409 556.870239 650.85144 C 556.329529 649.730957 555.58606 648.102173 555.026001 647.041992 C 552.68512 642.611084 550.031128 639.636292 547.437195 635.764587 C 542.080017 627.384277 537.63678 620.422363 534.890015 613.300537 C 533.741516 609.627441 535.083801 607.343018 535.978455 604.955933 C 535.442688 604.341797 534.296143 600.872986 533.620178 599.241699 C 572.762512 576.130005 601.633667 539.23645 615.192078 496.62677 C 617.022949 496.91452 620.205139 497.477509 621.238892 497.684998 C 623.366943 496.281433 625.323608 494.450104 629.160278 494.752258 C 636.714783 495.84494 644.468811 498.651001 653.83136 502.008453 C 658.18335 503.675507 661.688965 505.610535 666.529785 506.906372 C 667.552856 507.180267 669.018494 507.435822 670.188049 507.692535 C 670.282104 507.715515 670.365417 507.761597 670.460205 507.783142 C 670.523315 507.797302 670.611267 507.7995 670.671814 507.813354 C 679.062317 509.619598 687.210022 505.028198 688.933289 497.473236 C 690.656189 489.920074 685.301025 482.252625 676.960571 480.239777 C 675.747375 479.963837 674.026855 479.495361 672.848755 479.272217 C 667.924988 478.339844 663.917786 478.569794 659.27356 478.183807 C 649.381348 477.147308 641.187622 476.30426 633.907043 474.011475 C 630.938538 472.859894 628.826721 469.327637 627.799744 467.873962 L 622.085449 466.21106 C 625.048157 444.776764 624.249268 422.46933 619.122498 400.149353 C 613.947937 377.62149 604.803162 357.017578 592.607056 338.864563 C 594.072815 337.532043 596.841064 335.080811 597.625916 334.35968 C 597.855347 331.820801 597.658325 329.158936 600.28656 326.347656 C 605.850952 321.122498 612.867188 316.789734 621.329529 311.56311 C 625.346313 309.199951 629.059387 307.676697 633.090637 304.699951 C 634.002258 304.026794 635.247131 302.960754 636.204834 302.190491 C 642.992126 296.776123 644.55481 287.437744 639.681702 281.328918 C 634.808594 275.220032 625.365601 274.644653 618.578247 280.059082 C 617.612122 280.824219 616.301208 281.822388 615.433899 282.568481 C 611.63501 285.83667 609.288879 289.064636 606.091553 292.455078 C 599.113525 299.542908 593.345703 305.456055 587.013733 309.718872 C 584.269897 311.316223 580.250977 310.763489 578.427185 310.656067 L 573.04541 314.49585 C 542.357727 282.316406 500.575623 261.742737 455.585785 257.746155 C 455.459961 255.860779 455.295074 252.452881 455.253174 251.427246 C 453.411377 249.664795 451.186432 248.160095 450.62738 244.352417 C 450.011902 236.744141 451.039459 228.558472 452.229767 218.683533 C 452.88681 214.069824 453.978424 210.237122 454.164795 205.22937 C 454.207184 204.090942 454.13916 202.439087 454.134552 201.208252 C 454.133636 192.525818 447.799377 185.485657 439.984924 185.48645 Z M 422.26767 295.236633 L 418.065125 369.461609 L 417.762726 369.612793 C 417.480896 376.253052 412.015869 381.555298 405.306274 381.555298 C 402.5578 381.555298 400.020905 380.672668 397.95932 379.166809 L 397.83844 379.227234 L 336.976959 336.083008 C 355.682159 317.689819 379.607574 304.09729 407.180817 297.836731 C 412.21756 296.693176 417.252075 295.844604 422.26767 295.236633 Z M 457.732391 295.236633 C 489.924255 299.195923 519.695557 313.772705 542.509094 336.113281 L 482.04068 378.985413 L 481.829041 378.894775 C 476.461914 382.814758 468.899994 381.842133 464.716492 376.596924 C 463.002747 374.448212 462.103577 371.921661 461.995392 369.371002 L 461.934906 369.340759 Z M 314.905975 363.807861 L 370.47644 413.512878 L 370.416046 413.815216 C 375.431885 418.17569 376.171539 425.742432 371.98822 430.988251 C 370.274597 433.137085 367.980774 434.578339 365.518066 435.251251 L 365.457672 435.493134 L 294.225891 456.052399 C 290.600403 422.901001 298.413727 390.675232 314.906067 363.807861 Z M 564.670715 363.838013 C 572.92749 377.220978 579.17981 392.168335 582.901978 408.373016 C 586.579468 424.383392 587.502441 440.365082 585.985901 455.810486 L 514.391296 435.190765 L 514.330872 434.888397 C 507.919769 433.13623 503.979706 426.614777 505.47226 420.073669 C 506.08371 417.394073 507.506134 415.127197 509.432892 413.452362 L 509.40271 413.301178 L 564.670837 363.838013 Z M 428.586609 417.35257 L 451.352936 417.35257 L 465.502563 435.039581 L 460.423218 457.110535 L 439.984894 466.936615 L 419.486115 457.080292 L 414.406738 435.009369 Z M 501.571991 477.881439 C 502.539429 477.83255 503.502686 477.919769 504.444214 478.093048 L 504.565186 477.941895 L 578.245911 490.398376 C 567.462708 520.693604 546.828613 546.938965 519.258972 564.502441 L 490.65741 495.417267 L 490.748077 495.296356 C 488.120728 489.191467 490.749908 482.03241 496.794922 479.121063 C 498.34259 478.375702 499.959473 477.962891 501.57193 477.881439 Z M 377.823395 478.183807 C 383.446198 478.262573 388.489624 482.165253 389.796143 487.888977 C 390.407776 490.568512 390.110077 493.22345 389.100708 495.568451 L 389.312347 495.840576 L 361.013153 564.230347 C 334.554932 547.252136 313.480835 521.830811 302.207611 490.64035 L 375.253479 478.244293 L 375.37442 478.395477 C 376.191498 478.245087 377.020081 478.172577 377.823395 478.183868 Z M 439.531372 508.145935 C 441.490021 508.073944 443.477448 508.47583 445.366577 509.385498 C 447.842896 510.578003 449.755829 512.455566 450.9599 514.706787 L 451.232025 514.706787 L 487.240967 579.770752 C 482.567688 581.337402 477.763275 582.676208 472.849487 583.79187 C 445.310211 590.0448 417.858398 588.150146 393.000916 579.680054 L 428.919159 514.737 L 428.979614 514.737 C 431.134857 510.707916 435.222321 508.30423 439.531372 508.145935 Z"/>
        </g>
    </g>
    <g id="github-actions">
        <path id="Path" fill="#2088ff" stroke="none" d="M 653.540344 43 C 624.033508 43 600 67.033508 600 96.540344 C 600 122.380859 618.433716 144.0271 642.834656 149.004456 L 642.834656 225.040344 C 642.834656 248.672302 662.270325 267.875 685.665344 267.875 L 686.056824 267.875 C 688.671021 285.991516 704.327942 300 723.147156 300 C 743.783447 300 760.625 283.158447 760.625 262.522156 C 760.625 241.885864 743.783447 225.040344 723.147156 225.040344 C 704.329956 225.040344 688.673035 239.048828 686.056824 257.165344 L 685.665344 257.165344 C 668.123047 257.165344 653.540344 242.805481 653.540344 225.040344 L 653.540344 171.056274 C 660.540405 178.198608 670.123047 182.219177 680.123779 182.209656 L 686.056824 182.209656 C 688.673035 200.326172 704.327942 214.334656 723.147156 214.334656 C 741.964417 214.334656 757.619324 200.326172 760.231445 182.209656 L 782.431824 182.209656 C 785.048035 200.326172 800.702942 214.334656 819.522156 214.334656 C 840.158447 214.334656 857 197.489136 857 176.852844 C 857 156.216553 840.158447 139.375 819.522156 139.375 C 800.702942 139.375 785.046021 153.383545 782.431824 171.5 L 760.233459 171.5 C 757.621338 153.383545 741.96637 139.375 723.147156 139.375 C 704.327942 139.375 688.671021 153.383545 686.056824 171.5 L 680.123779 171.5 C 667.20752 171.5 656.445618 162.286133 654.046326 150.072632 C 683.32019 149.799561 707.084656 125.878479 707.084656 96.540344 C 707.084656 67.033508 683.047119 43 653.540344 43 Z M 653.540344 53.709656 C 664.906982 53.687256 675.814575 58.192383 683.852356 66.229431 C 691.890198 74.266541 696.396362 85.173706 696.375 96.540344 C 696.396362 107.907349 691.89032 118.814941 683.8526 126.8526 C 675.814941 134.89032 664.907349 139.396362 653.540344 139.375 C 642.173706 139.396362 631.266541 134.890198 623.229431 126.852356 C 615.192383 118.814575 610.687256 107.906982 610.709656 96.540344 C 610.687256 85.174072 615.192505 74.266907 623.229675 66.229675 C 631.266846 58.192505 642.174072 53.687256 653.540344 53.709656 Z M 643.06958 68.850586 C 637.48584 68.878723 632.125 73.364136 632.125 79.473938 L 632.125 113.693054 C 632.125 121.810669 641.579773 127.071106 648.478638 122.794495 L 675.853149 105.81842 C 682.392578 101.762634 682.426758 91.759705 675.917419 87.657776 L 648.540894 70.410645 C 646.904602 69.376465 645.005249 68.834839 643.06958 68.850586 Z M 642.834656 79.473938 L 670.211182 96.717041 L 642.834656 113.693054 L 642.834656 79.473938 Z M 723.147156 150.084656 C 730.253418 150.062195 737.075073 152.875183 742.099976 157.900024 C 747.124817 162.924927 749.937805 169.746582 749.915344 176.852844 C 749.937256 183.95929 747.124268 190.781006 742.099609 195.806458 C 737.074951 200.831848 730.253601 203.645874 723.147156 203.625 C 716.040222 203.646423 709.21814 200.832642 704.192749 195.807251 C 699.167358 190.78186 696.353577 183.959778 696.375 176.852844 C 696.354126 169.746399 699.168152 162.925049 704.193604 157.900391 C 709.218994 152.875732 716.04071 150.062744 723.147156 150.084656 Z M 819.522156 150.084656 C 826.628418 150.062195 833.450073 152.875183 838.474976 157.900024 C 843.499817 162.924927 846.312805 169.746582 846.290344 176.852844 C 846.312256 183.95929 843.499268 190.781006 838.474609 195.806458 C 833.449951 200.831848 826.628601 203.645874 819.522156 203.625 C 812.415222 203.646423 805.59314 200.832642 800.567749 195.807251 C 795.542358 190.78186 792.728577 183.959778 792.75 176.852844 C 792.729126 169.746399 795.543152 162.925049 800.568542 157.900391 C 805.593994 152.875732 812.41571 150.062744 819.522156 150.084656 Z M 734.053589 164.040955 C 732.632935 164.039734 731.27002 164.603149 730.264893 165.607056 L 717.615662 178.244263 L 713.413269 174.059937 C 711.31897 171.973022 707.929565 171.978394 705.841858 174.072021 C 704.839539 175.078369 704.278137 176.441711 704.281189 177.862061 C 704.28418 179.28241 704.851379 180.643372 705.85791 181.645508 L 713.836914 189.596436 C 715.927368 191.679443 719.309021 191.678528 721.398376 189.594421 L 737.832336 173.182556 C 738.83728 172.178833 739.402283 170.816956 739.403015 169.396667 C 739.403748 167.976318 738.84021 166.613892 737.836304 165.60907 C 736.832642 164.606628 735.472168 164.043335 734.053589 164.042969 Z M 830.428589 164.040955 C 829.007935 164.039734 827.64502 164.603149 826.639893 165.607056 L 813.990662 178.244263 L 809.788269 174.059937 C 807.693909 171.973022 804.304565 171.978394 802.216858 174.072021 C 801.214539 175.078369 800.653137 176.441711 800.656189 177.862061 C 800.65918 179.28241 801.226379 180.643372 802.23291 181.645508 L 810.211914 189.596436 C 812.302368 191.679443 815.684021 191.678528 817.773376 189.594421 L 834.207336 173.182556 C 835.21228 172.178833 835.777283 170.816956 835.778015 169.396667 C 835.778748 167.976318 835.21521 166.613892 834.211304 165.60907 C 833.207642 164.606628 831.847168 164.043335 830.428589 164.042969 Z M 723.147156 235.75 C 730.253601 235.729126 737.074951 238.543152 742.099609 243.568542 C 747.124268 248.593994 749.937256 255.41571 749.915344 262.522156 C 749.937805 269.628418 747.124817 276.450073 742.099976 281.474976 C 737.075073 286.499817 730.253418 289.312805 723.147156 289.290344 C 716.04071 289.312256 709.218994 286.499268 704.193604 281.474609 C 699.168152 276.449951 696.354126 269.628601 696.375 262.522156 C 696.353577 255.415222 699.167358 248.59314 704.192749 243.567749 C 709.21814 238.542358 716.040222 235.728577 723.147156 235.75 Z M 712.4375 254.490906 C 708.034363 254.490906 704.40625 258.119019 704.40625 262.522156 C 704.40625 266.929321 708.036377 270.553406 712.4375 270.553406 C 716.838623 270.553406 720.46875 266.929321 720.46875 262.522156 C 720.46875 258.119019 716.840637 254.490906 712.4375 254.490906 Z M 733.852844 254.490906 C 729.449707 254.490906 725.821594 258.119019 725.821594 262.522156 C 725.821594 266.929321 729.451721 270.553406 733.852844 270.553406 C 738.253967 270.553406 741.884094 266.929321 741.884094 262.522156 C 741.884094 258.119019 738.255981 254.490906 733.852844 254.490906 Z M 712.4375 259.84375 C 713.943359 259.84375 715.115906 261.018311 715.115906 262.522156 C 715.115906 264.034058 713.945374 265.196594 712.4375 265.196594 C 710.931641 265.196594 709.759094 264.032043 709.759094 262.522156 C 709.759094 261.016296 710.933655 259.84375 712.4375 259.84375 Z M 733.852844 259.84375 C 735.358704 259.84375 736.53125 261.018311 736.53125 262.522156 C 736.53125 264.034058 735.360718 265.196594 733.852844 265.196594 C 732.346985 265.196594 731.178406 264.032043 731.178406 262.522156 C 731.178406 261.016296 732.348999 259.84375 733.852844 259.84375 Z"/>
        <path id="path1" fill="#79b8ff" stroke="none" d="M 819.522156 225.040344 C 800.682861 225.040344 785.011902 239.080933 782.423828 257.227539 C 782.246948 257.211365 782.069336 257.204041 781.891785 257.205505 L 776.470642 257.386169 C 773.516602 257.483337 771.199829 259.955505 771.294495 262.909668 C 771.391602 265.864563 773.865112 268.181641 776.820007 268.085815 L 782.241089 267.911133 C 782.306091 267.908325 782.371033 267.904297 782.435852 267.899109 C 785.060059 286.00354 800.710999 300 819.522156 300 C 840.158447 300 857 283.158447 857 262.522156 C 857 241.885864 840.158447 225.040344 819.522156 225.040344 Z M 819.522156 235.75 C 826.628601 235.729126 833.449951 238.543152 838.474609 243.568542 C 843.499268 248.593994 846.312256 255.41571 846.290344 262.522156 C 846.312805 269.628418 843.499817 276.450073 838.474976 281.474976 C 833.450073 286.499817 826.628418 289.312805 819.522156 289.290344 C 812.41571 289.312256 805.593994 286.499268 800.568542 281.474609 C 795.543152 276.449951 792.729126 269.628601 792.75 262.522156 C 792.728577 255.415222 795.542358 248.59314 800.567749 243.567749 C 805.59314 238.542358 812.415222 235.728577 819.522156 235.75 Z"/>
    </g>
    <path id="helm" fill="#0f1689" stroke="none" d="M 113.973175 654.563232 C 113.510635 654.344666 113.279373 653.907349 112.816833 653.688721 C 105.416283 646.911255 99.634598 638.82196 96.165588 629.420898 C 95.240517 626.797363 94.546715 624.173828 94.546715 621.331665 L 94.546715 620.457153 C 94.777985 616.740417 97.321922 614.991394 101.022202 615.865906 C 102.178535 616.084534 103.334877 616.52179 104.259941 617.177673 C 108.422752 619.145386 111.6605 621.987549 114.666977 625.266968 C 119.986122 630.732666 124.380203 637.291565 127.386681 644.28772 C 127.386681 644.506348 127.61795 644.724976 127.61795 644.724976 C 127.61795 644.724976 127.849213 644.943604 128.080475 644.943604 C 142.419052 636.635681 158.83905 631.607178 175.721558 630.732666 C 175.49028 630.29541 175.49028 629.858154 175.49028 629.420898 C 173.871414 622.643433 173.177612 615.42865 173.871414 608.432495 C 174.102692 604.278564 175.027756 600.124634 176.415359 595.970642 C 177.109161 593.784363 178.265488 592.035339 179.653107 590.286255 C 180.115631 589.630371 180.809448 589.193115 181.503235 588.755859 C 182.890854 587.881348 184.740982 587.881348 186.128586 588.755859 C 187.516205 589.630371 188.672531 590.942139 189.597595 592.472534 C 190.985214 595.09613 192.141541 597.938293 192.604065 600.780518 C 193.991669 606.9021 194.454224 613.24231 193.760406 619.582581 C 193.529144 623.299316 192.835342 627.234619 191.679001 630.951294 C 195.841812 631.607178 200.004623 632.263062 204.167435 633.137573 C 208.330261 634.012085 212.261795 635.105286 216.193329 636.635681 C 220.124893 637.947449 224.056427 639.696472 227.756699 641.445496 C 231.457001 643.19458 234.92601 645.380859 238.626282 647.348511 C 238.857544 647.129883 238.857544 646.911255 239.088806 646.473999 C 243.020355 636.198425 249.727097 627.015991 258.515259 619.801208 C 260.59668 618.052246 262.909363 616.740417 265.453308 615.865906 C 266.147095 615.647278 266.840881 615.42865 267.534698 615.42865 C 271.234985 614.991394 272.853821 617.177673 273.085114 620.019836 C 273.316376 621.987549 273.085114 623.9552 272.622559 625.922852 C 271.234985 630.951294 269.153564 635.542542 266.378357 639.9151 C 262.446808 646.255371 257.59021 651.721069 251.57724 656.312317 C 251.345978 656.530945 251.114716 656.530945 250.883438 656.968201 C 256.6651 662.215271 261.984283 668.118286 266.609619 674.458496 C 266.147095 674.458496 265.915833 674.677124 265.68457 674.677124 L 246.951904 674.677124 C 246.258087 674.677124 245.564301 674.239868 245.101761 673.802612 C 231.457001 659.373108 213.186874 650.190674 193.297882 647.348511 C 187.516205 646.473999 181.503235 646.255371 175.49028 646.692627 C 157.913971 647.785767 140.800186 654.126038 127.155411 664.838867 C 123.686401 667.462402 120.217392 670.523193 117.210922 673.802612 C 116.748383 674.458496 115.823311 674.895752 114.898247 674.895752 L 95.703056 674.895752 C 96.165588 673.583984 99.634598 668.77417 103.797409 664.401611 C 107.266418 660.903503 110.504166 657.842712 113.973175 654.563232 Z M 265.222046 783.335876 C 261.059204 789.020203 256.433838 794.048706 251.114716 798.858521 C 251.57724 799.295776 251.808517 799.514404 252.271057 799.733032 C 261.290466 806.947815 268.228485 816.348877 272.160034 827.061707 C 273.085114 829.685242 273.547638 832.527405 273.547638 835.151001 C 273.547638 835.806885 273.316376 836.462769 273.085114 837.33728 C 272.391296 839.304932 270.309875 840.616699 268.228485 840.179443 C 266.840881 839.960815 265.453308 839.52356 264.296936 839.086304 C 262.446808 838.211792 260.59668 837.118652 258.977783 835.806885 C 250.189651 828.81073 243.482895 819.628296 239.551346 809.352722 C 239.320068 809.134094 239.320068 808.696838 239.088806 808.259583 C 234.463455 811.320374 229.606842 813.94397 224.518967 816.130249 C 219.431076 818.316528 214.111938 820.28418 208.792786 821.595947 C 203.242371 822.907715 197.923233 824.000854 192.141541 824.656799 C 192.372803 825.094055 192.372803 825.531311 192.372803 825.968567 C 194.222931 832.746033 194.685486 839.742188 194.222931 846.738342 C 193.991669 851.110901 193.066605 855.264893 191.679001 859.418823 C 190.985214 861.167847 190.060135 862.698242 189.135056 864.447266 C 188.672531 865.103149 188.209991 865.540405 187.747467 866.19635 C 185.434784 868.601196 182.659576 868.601196 180.346893 866.19635 C 179.421829 865.321777 178.728027 864.228638 178.034225 862.91687 C 176.184097 859.637451 175.259018 856.139343 174.565216 852.422668 C 173.640152 847.394226 173.40889 842.365723 173.640152 837.33728 C 173.871414 833.620544 174.333954 829.90387 175.259018 826.405823 C 175.259018 826.187195 175.49028 825.749939 175.49028 825.531311 C 175.49028 825.531311 175.49028 825.312683 175.259018 825.094055 C 158.376511 824.219482 142.18779 819.409668 127.61795 810.883118 L 126.924141 812.194885 C 122.76133 821.377319 116.748383 829.466614 108.885292 835.806885 C 106.803886 837.555908 104.491211 838.867676 101.947273 839.742188 C 100.790932 840.179443 99.403336 840.398071 98.246994 840.179443 C 96.85939 839.960815 95.703056 839.086304 95.009247 837.555908 C 94.084183 835.588257 94.315453 833.620544 94.546715 831.652893 C 95.009247 828.81073 95.934326 826.187195 97.09066 823.56366 C 100.559669 815.474365 106.110077 808.259583 112.585571 802.137939 C 112.816833 801.919312 113.048103 801.700684 113.510635 801.482056 C 113.510635 801.263428 113.741913 801.263428 113.741913 801.0448 C 107.497688 795.797729 101.716003 789.894714 97.09066 783.335876 C 97.784462 783.335876 98.015724 783.117249 98.478256 783.117249 L 116.979645 783.117249 C 117.904724 783.117249 118.598518 783.554504 119.061058 783.99176 C 125.767807 790.769287 133.63089 796.234985 142.18779 800.388916 C 151.207214 804.980164 161.151718 807.822327 171.327469 808.696838 C 199.079559 811.320374 222.900085 803.231079 242.789078 784.429016 C 243.714157 783.554504 244.870483 782.89856 246.258087 783.117249 L 264.990753 783.117249 L 265.222046 783.335876 Z M 239.551346 698.070496 C 241.170212 698.070496 242.789078 698.289124 244.407959 698.070496 C 246.258087 697.851868 247.414429 698.507751 248.802048 699.600891 C 256.202576 706.15979 263.603149 712.718628 271.234985 719.277466 L 272.391296 720.370667 C 272.853821 719.933411 273.316376 719.714783 273.778931 719.277466 C 281.410736 712.5 289.273834 705.722534 296.674377 698.945007 C 297.368195 698.289124 298.293243 698.070496 299.218323 698.070496 L 305 698.070496 L 305 757.974854 C 304.074921 758.193481 290.430176 758.412109 288.811279 757.974854 L 288.811279 727.585449 L 288.580017 727.366821 C 283.260864 731.958008 277.941711 736.767822 272.622559 741.35907 C 267.303436 736.549194 261.984283 731.958008 256.433838 727.366821 L 256.202576 727.585449 L 256.202576 758.193481 L 240.013885 758.193481 C 239.551346 757.100342 239.320068 701.568542 239.551346 698.070496 Z M 91.077705 698.070496 L 107.035156 698.070496 C 107.497688 699.163635 107.497688 756.663086 107.035156 757.974854 L 91.077705 757.974854 C 90.846436 754.258179 91.077705 750.322876 91.077705 746.60614 L 91.077705 735.237427 L 71.188713 735.237427 L 71.188713 757.756226 C 70.032379 758.193481 56.387604 758.193481 55 757.756226 L 55 698.070496 L 71.188713 698.070496 L 71.188713 719.277466 C 72.345047 719.714783 89.22757 719.714783 91.077705 719.277466 L 91.077705 698.070496 Z M 126.230339 757.974854 L 126.230339 698.289124 C 127.155411 698.070496 162.30806 697.851868 164.620728 698.070496 L 164.620728 710.750977 C 164.158188 710.750977 163.464386 710.969604 163.001846 710.969604 L 142.419052 710.969604 L 142.419052 720.807922 L 162.076782 720.807922 L 162.076782 733.925659 L 142.65033 733.925659 C 142.18779 735.018799 142.18779 742.889465 142.419052 745.075745 C 142.881592 745.075745 143.575394 745.294373 144.037933 745.294373 L 164.620728 745.294373 L 164.620728 757.974854 L 126.230339 757.974854 Z M 183.122116 757.974854 C 182.890854 756.444458 182.890854 699.163635 183.122116 698.070496 L 199.079559 698.070496 L 199.079559 742.233582 C 199.773361 742.233582 200.235901 742.233582 200.929688 742.452209 L 221.512497 742.452209 L 221.512497 758.193481 L 183.122116 757.974854 Z"/>
    <g id="docker">
        <path id="path2" fill="#3a4d54" fill-rule="evenodd" stroke="none" d="M 738.488953 692.889404 L 772.433838 692.889404 L 772.433838 727.43512 L 789.556519 727.43512 C 797.366821 727.43512 805.477539 725.933167 812.987488 723.529968 C 816.592285 722.328369 820.797852 720.526001 824.402588 718.423218 C 819.596252 712.114868 817.193054 704.304504 816.592285 696.494202 C 815.691101 685.980286 817.793884 672.161987 825.003418 664.05127 L 828.608154 659.845703 L 832.813721 663.150085 C 843.628052 671.861572 852.339539 683.577087 854.141968 697.395386 C 867.059021 693.490234 882.078918 694.391418 893.494019 701.000122 L 898 703.703735 L 895.596802 708.510071 C 885.98407 727.134705 865.857422 733.1427 846.331604 731.941101 C 816.8927 804.937683 753.208435 839.483398 675.705872 839.483398 C 635.752991 839.483398 599.104553 824.463501 578.076721 789.016602 L 577.776306 788.415771 L 574.772339 782.107483 C 567.562805 766.486816 565.460022 749.364136 566.961975 732.241455 L 567.562805 727.134705 L 596.40094 727.134705 L 596.40094 692.889404 L 630.345886 692.889404 L 630.345886 659.244873 L 697.935303 659.244873 L 697.935303 625.299988 L 738.488953 625.299988 L 738.488953 692.889404 Z"/>
        <path id="path3" fill="#00aada" stroke="none" d="M 848.434387 705.806519 C 850.837585 688.083069 837.620117 674.264771 829.208984 667.656006 C 819.896667 678.470337 818.394653 707.308472 833.114136 719.324402 C 824.703003 726.533936 807.580383 733.443115 789.556519 733.443115 L 572.669556 733.443115 C 570.867188 752.067749 574.17157 769.190369 581.681458 783.909851 L 584.084656 788.415771 C 585.58667 791.119385 587.389038 793.522583 589.191406 796.226135 C 598.203308 796.826965 606.314087 797.127319 613.823975 796.826965 C 628.543457 796.52655 640.559387 794.724121 649.871704 791.720154 C 651.373657 791.119385 652.575256 792.020569 653.176086 793.222168 C 653.776855 794.724121 652.875671 795.92572 651.674072 796.52655 C 650.472473 796.826965 649.270874 797.427734 647.768921 797.728149 C 640.559387 799.830933 632.749023 801.032532 622.835938 801.633301 L 621.033569 801.633301 C 617.128357 801.933716 612.922791 801.933716 608.41687 801.933716 C 603.610474 801.933716 599.104553 801.933716 593.697388 801.633301 C 611.721191 822.060303 639.958557 834.076233 675.405457 834.076233 C 750.504822 834.076233 814.189087 800.732117 842.126099 726.233521 C 862.252686 728.336304 881.478149 723.229553 890.189636 706.106934 C 876.671753 697.996155 858.647949 700.699768 848.434387 705.806519 Z"/>
        <path id="path4" fill="#28b8eb" stroke="none" d="M 848.434387 705.806519 C 850.837585 688.083069 837.620117 674.264771 829.208984 667.656006 C 819.896667 678.470337 818.394653 707.308472 833.114136 719.324402 C 824.703003 726.533936 807.580383 733.443115 789.556519 733.443115 L 585.286255 733.443115 C 584.385071 761.980835 594.898987 783.609436 613.823975 796.52655 C 628.543457 796.226135 640.559387 794.423767 649.871704 791.4198 C 651.373657 790.81897 652.575256 791.720154 653.176086 792.921753 C 653.776855 794.423767 652.875671 795.625366 651.674072 796.226135 C 650.472473 796.52655 649.270874 797.127319 647.768921 797.427734 C 640.559387 799.530518 632.148254 801.032532 622.235107 801.633301 L 621.934753 801.332886 C 647.468506 814.550415 684.417419 814.25 727.073853 798.028564 C 774.536621 779.704285 818.995422 744.858154 849.936401 705.205688 C 849.335571 705.506104 848.734802 705.506104 848.434387 705.806519 Z"/>
        <path id="path5" fill="#028bb8" stroke="none" d="M 572.969971 755.9729 C 574.17157 765.885986 577.175537 775.198303 581.681458 783.909851 L 584.084656 788.415771 C 585.58667 791.119385 587.389038 793.522583 589.191406 796.226135 C 598.203308 796.826965 606.314087 797.127319 613.823975 796.826965 C 628.543457 796.52655 640.559387 794.724121 649.871704 791.720154 C 651.373657 791.119385 652.575256 792.020569 653.176086 793.222168 C 653.776855 794.724121 652.875671 795.92572 651.674072 796.52655 C 650.472473 796.826965 649.270874 797.427734 647.768921 797.728149 C 640.559387 799.830933 632.148254 801.332886 622.235107 801.933716 L 621.033569 801.933716 C 617.128357 802.23407 612.922791 802.23407 608.717224 802.23407 C 603.910889 802.23407 599.104553 802.23407 593.997803 801.933716 C 612.021606 822.360718 640.559387 834.376587 676.006287 834.376587 C 740.291321 834.376587 796.165222 810.044434 828.608154 756.273315 L 572.969971 756.273315 L 572.969971 755.9729 Z"/>
        <path id="path6" fill="#019bc6" stroke="none" d="M 587.389038 755.9729 C 591.294189 773.395935 600.306091 787.214233 613.823975 796.52655 C 628.543457 796.226135 640.559387 794.423767 649.871704 791.4198 C 651.373657 790.81897 652.575256 791.720154 653.176086 792.921753 C 653.776855 794.423767 652.875671 795.625366 651.674072 796.226135 C 650.472473 796.52655 649.270874 797.127319 647.768921 797.427734 C 640.559387 799.530518 632.148254 801.032532 621.934753 801.633301 C 647.468506 814.850769 684.417419 814.550415 726.773438 798.328918 C 752.307251 788.415771 777.240173 773.696289 799.469604 755.9729 L 587.389038 755.9729 Z"/>
        <path id="path7" fill="#00acd3" fill-rule="evenodd" stroke="none" d="M 602.108521 698.596924 L 631.547424 698.596924 L 631.547424 728.035889 L 602.108521 728.035889 L 602.108521 698.596924 Z M 604.511658 701.000122 L 606.914856 701.000122 L 606.914856 725.332336 L 604.511658 725.332336 L 604.511658 701.000122 Z M 608.717224 701.000122 L 611.120422 701.000122 L 611.120422 725.332336 L 608.717224 725.332336 L 608.717224 701.000122 Z M 613.223206 701.000122 L 615.626404 701.000122 L 615.626404 725.332336 L 613.223206 725.332336 L 613.223206 701.000122 Z M 617.729187 701.000122 L 620.132324 701.000122 L 620.132324 725.332336 L 617.729187 725.332336 L 617.729187 701.000122 Z M 622.235107 701.000122 L 624.638306 701.000122 L 624.638306 725.332336 L 622.235107 725.332336 L 622.235107 701.000122 Z M 626.741089 701.000122 L 629.144287 701.000122 L 629.144287 725.332336 L 626.741089 725.332336 L 626.741089 701.000122 Z M 635.752991 664.952454 L 665.191956 664.952454 L 665.191956 694.391418 L 635.752991 694.391418 L 635.752991 664.952454 Z M 638.456604 667.355652 L 640.859741 667.355652 L 640.859741 691.687866 L 638.456604 691.687866 L 638.456604 667.355652 Z M 642.66217 667.355652 L 645.065369 667.355652 L 645.065369 691.687866 L 642.66217 691.687866 L 642.66217 667.355652 Z M 647.168152 667.355652 L 649.571289 667.355652 L 649.571289 691.687866 L 647.168152 691.687866 L 647.168152 667.355652 Z M 651.674072 667.355652 L 654.077271 667.355652 L 654.077271 691.687866 L 651.674072 691.687866 L 651.674072 667.355652 Z M 655.879639 667.355652 L 658.282837 667.355652 L 658.282837 691.687866 L 655.879639 691.687866 L 655.879639 667.355652 Z M 660.38562 667.355652 L 662.788757 667.355652 L 662.788757 691.687866 L 660.38562 691.687866 L 660.38562 667.355652 Z"/>
        <path id="path8" fill="#23c2ee" fill-rule="evenodd" stroke="none" d="M 635.752991 698.596924 L 665.191956 698.596924 L 665.191956 728.035889 L 635.752991 728.035889 L 635.752991 698.596924 Z M 638.456604 701.000122 L 640.859741 701.000122 L 640.859741 725.332336 L 638.456604 725.332336 L 638.456604 701.000122 Z M 642.66217 701.000122 L 645.065369 701.000122 L 645.065369 725.332336 L 642.66217 725.332336 L 642.66217 701.000122 Z M 647.168152 701.000122 L 649.571289 701.000122 L 649.571289 725.332336 L 647.168152 725.332336 L 647.168152 701.000122 Z M 651.674072 701.000122 L 654.077271 701.000122 L 654.077271 725.332336 L 651.674072 725.332336 L 651.674072 701.000122 Z M 655.879639 701.000122 L 658.282837 701.000122 L 658.282837 725.332336 L 655.879639 725.332336 L 655.879639 701.000122 Z M 660.38562 701.000122 L 662.788757 701.000122 L 662.788757 725.332336 L 660.38562 725.332336 L 660.38562 701.000122 Z"/>
        <path id="path9" fill="#00acd3" fill-rule="evenodd" stroke="none" d="M 669.697937 698.596924 L 699.136902 698.596924 L 699.136902 728.035889 L 669.697937 728.035889 L 669.697937 698.596924 Z M 672.101135 701.000122 L 674.504272 701.000122 L 674.504272 725.332336 L 672.101135 725.332336 L 672.101135 701.000122 Z M 676.607056 701.000122 L 679.010254 701.000122 L 679.010254 725.332336 L 676.607056 725.332336 L 676.607056 701.000122 Z M 681.113037 701.000122 L 683.516235 701.000122 L 683.516235 725.332336 L 681.113037 725.332336 L 681.113037 701.000122 Z M 685.318604 701.000122 L 687.721802 701.000122 L 687.721802 725.332336 L 685.318604 725.332336 L 685.318604 701.000122 Z M 689.824524 701.000122 L 692.227722 701.000122 L 692.227722 725.332336 L 689.824524 725.332336 L 689.824524 701.000122 Z M 694.330505 701.000122 L 696.733704 701.000122 L 696.733704 725.332336 L 694.330505 725.332336 L 694.330505 701.000122 Z"/>
        <path id="path10" fill="#23c2ee" fill-rule="evenodd" stroke="none" d="M 669.697937 664.952454 L 699.136902 664.952454 L 699.136902 694.391418 L 669.697937 694.391418 L 669.697937 664.952454 Z M 672.101135 667.355652 L 674.504272 667.355652 L 674.504272 691.687866 L 672.101135 691.687866 L 672.101135 667.355652 Z M 676.607056 667.355652 L 679.010254 667.355652 L 679.010254 691.687866 L 676.607056 691.687866 L 676.607056 667.355652 Z M 681.113037 667.355652 L 683.516235 667.355652 L 683.516235 691.687866 L 681.113037 691.687866 L 681.113037 667.355652 Z M 685.318604 667.355652 L 687.721802 667.355652 L 687.721802 691.687866 L 685.318604 691.687866 L 685.318604 667.355652 Z M 689.824524 667.355652 L 692.227722 667.355652 L 692.227722 691.687866 L 689.824524 691.687866 L 689.824524 667.355652 Z M 694.330505 667.355652 L 696.733704 667.355652 L 696.733704 691.687866 L 694.330505 691.687866 L 694.330505 667.355652 Z M 703.642822 698.596924 L 733.081787 698.596924 L 733.081787 728.035889 L 703.642822 728.035889 L 703.642822 698.596924 Z M 706.046021 701.000122 L 708.449219 701.000122 L 708.449219 725.332336 L 706.046021 725.332336 L 706.046021 701.000122 Z M 710.552002 701.000122 L 712.955139 701.000122 L 712.955139 725.332336 L 710.552002 725.332336 L 710.552002 701.000122 Z M 714.757568 701.000122 L 717.160706 701.000122 L 717.160706 725.332336 L 714.757568 725.332336 L 714.757568 701.000122 Z M 719.263489 701.000122 L 721.666687 701.000122 L 721.666687 725.332336 L 719.263489 725.332336 L 719.263489 701.000122 Z M 723.76947 701.000122 L 726.172607 701.000122 L 726.172607 725.332336 L 723.76947 725.332336 L 723.76947 701.000122 Z M 728.275452 701.000122 L 730.678589 701.000122 L 730.678589 725.332336 L 728.275452 725.332336 L 728.275452 701.000122 Z"/>
        <path id="path11" fill="#00acd3" fill-rule="evenodd" stroke="none" d="M 703.642822 664.952454 L 733.081787 664.952454 L 733.081787 694.391418 L 703.642822 694.391418 L 703.642822 664.952454 Z M 706.046021 667.355652 L 708.449219 667.355652 L 708.449219 691.687866 L 706.046021 691.687866 L 706.046021 667.355652 Z M 710.552002 667.355652 L 712.955139 667.355652 L 712.955139 691.687866 L 710.552002 691.687866 L 710.552002 667.355652 Z M 714.757568 667.355652 L 717.160706 667.355652 L 717.160706 691.687866 L 714.757568 691.687866 L 714.757568 667.355652 Z M 719.263489 667.355652 L 721.666687 667.355652 L 721.666687 691.687866 L 719.263489 691.687866 L 719.263489 667.355652 Z M 723.76947 667.355652 L 726.172607 667.355652 L 726.172607 691.687866 L 723.76947 691.687866 L 723.76947 667.355652 Z M 728.275452 667.355652 L 730.678589 667.355652 L 730.678589 691.687866 L 728.275452 691.687866 L 728.275452 667.355652 Z"/>
        <path id="path12" fill="#23c2ee" fill-rule="evenodd" stroke="none" d="M 703.642822 631.007568 L 733.081787 631.007568 L 733.081787 660.446472 L 703.642822 660.446472 L 703.642822 631.007568 Z M 706.046021 633.410706 L 708.449219 633.410706 L 708.449219 657.74292 L 706.046021 657.74292 L 706.046021 633.410706 Z M 710.552002 633.410706 L 712.955139 633.410706 L 712.955139 657.74292 L 710.552002 657.74292 L 710.552002 633.410706 Z M 714.757568 633.410706 L 717.160706 633.410706 L 717.160706 657.74292 L 714.757568 657.74292 L 714.757568 633.410706 Z M 719.263489 633.410706 L 721.666687 633.410706 L 721.666687 657.74292 L 719.263489 657.74292 L 719.263489 633.410706 Z M 723.76947 633.410706 L 726.172607 633.410706 L 726.172607 657.74292 L 723.76947 657.74292 L 723.76947 633.410706 Z M 728.275452 633.410706 L 730.678589 633.410706 L 730.678589 657.74292 L 728.275452 657.74292 L 728.275452 633.410706 Z"/>
        <path id="path13" fill="#00acd3" fill-rule="evenodd" stroke="none" d="M 737.587769 698.596924 L 767.026733 698.596924 L 767.026733 728.035889 L 737.587769 728.035889 L 737.587769 698.596924 Z M 739.990967 701.000122 L 742.394104 701.000122 L 742.394104 725.332336 L 739.990967 725.332336 L 739.990967 701.000122 Z M 744.196472 701.000122 L 746.59967 701.000122 L 746.59967 725.332336 L 744.196472 725.332336 L 744.196472 701.000122 Z M 748.702454 701.000122 L 751.105652 701.000122 L 751.105652 725.332336 L 748.702454 725.332336 L 748.702454 701.000122 Z M 753.208435 701.000122 L 755.611572 701.000122 L 755.611572 725.332336 L 753.208435 725.332336 L 753.208435 701.000122 Z M 757.714355 701.000122 L 760.117554 701.000122 L 760.117554 725.332336 L 757.714355 725.332336 L 757.714355 701.000122 Z M 762.220337 701.000122 L 764.623535 701.000122 L 764.623535 725.332336 L 762.220337 725.332336 L 762.220337 701.000122 Z"/>
        <path id="path14" fill="#d4eef1" fill-rule="evenodd" stroke="none" d="M 663.389587 775.498718 C 667.895569 775.498718 671.500305 779.103516 671.500305 783.609436 C 671.500305 788.115417 667.895569 791.720154 663.389587 791.720154 C 658.883606 791.720154 655.27887 788.115417 655.27887 783.609436 C 655.27887 779.103516 658.883606 775.498718 663.389587 775.498718"/>
        <path id="path15" fill="#3a4d54" fill-rule="evenodd" stroke="none" d="M 663.389587 777.901917 C 663.990356 777.901917 664.891541 777.901917 665.492371 778.202271 C 664.891541 778.502686 664.290771 779.40387 664.290771 780.305054 C 664.290771 781.506653 665.492371 782.708252 666.69397 782.708252 C 667.595154 782.708252 668.496338 782.107483 668.796753 781.506653 C 669.097107 782.107483 669.097107 783.008667 669.097107 783.609436 C 669.097107 786.913818 666.393555 789.317017 663.389587 789.317017 C 660.085205 789.317017 657.682007 786.613403 657.682007 783.609436 C 657.682007 780.605469 660.085205 777.901917 663.389587 777.901917 M 520.099976 758.976868 L 896.798401 758.976868 C 888.687683 756.874084 870.964233 754.170471 873.667786 743.356201 C 858.647949 760.478882 822.900635 755.37207 813.588318 746.960938 C 803.374817 761.68042 744.496887 755.9729 740.591736 744.5578 C 727.975037 759.577637 688.622986 759.577637 676.006287 744.5578 C 671.80072 755.9729 612.922791 761.68042 603.009705 746.960938 C 593.997803 755.37207 557.950073 760.478882 542.930176 743.356201 C 546.234558 753.870117 528.210754 756.874084 520.099976 758.976868"/>
        <path id="path16" fill="#bfdbe0" stroke="none" d="M 685.018188 834.076233 C 664.891541 824.463501 654.077271 811.546387 647.768921 797.427734 C 640.258972 799.530518 631.24707 801.032532 621.033569 801.633301 C 617.128357 801.933716 612.922791 801.933716 608.717224 801.933716 C 603.610474 801.933716 598.503723 801.933716 593.096558 801.633301 C 611.120422 819.657166 633.950623 833.775818 675.705872 834.076233 L 685.018188 834.076233 Z"/>
        <path id="path17" fill="#d4eef1" stroke="none" d="M 655.27887 810.344849 C 652.575256 806.439636 649.871704 801.933716 647.768921 797.427734 C 640.258972 799.530518 631.24707 801.032532 621.033569 801.633301 C 627.942688 805.238037 638.156189 808.842834 655.27887 810.344849 Z"/>
    </g>
    <g id="argocd">
        <path id="path18" fill="#e9654b" stroke="none" d="M 83.506645 249.322021 C 83.506645 249.322021 81.122124 256.500916 77.524223 260.087524 C 75.399734 262.458191 72.339279 263.773193 69.157288 263.682617 C 63.254486 265.267273 57.25465 266.465332 51.19595 267.269287 C 51.19595 267.269287 59.576969 268.468567 69.157288 269.665039 C 72.741104 269.665039 72.741104 269.665039 75.136887 270.864319 C 81.122124 270.864319 83.506645 267.269287 83.506645 267.269287 Z M 193.611298 249.322021 C 193.611298 249.322021 196.007095 256.500916 199.593719 260.087524 C 201.723969 262.456726 204.787064 263.771118 207.971924 263.682617 C 213.869827 265.267822 219.865021 266.465881 225.919189 267.269287 C 225.919189 267.269287 217.549438 268.468567 206.775436 269.665039 C 203.188797 269.665039 203.188797 269.665039 200.790207 270.864319 C 193.611298 270.864319 192.412003 267.269287 192.412003 267.269287 Z M 193.611298 249.322021"/>
        <path id="path19" fill="#b6cfea" stroke="none" d="M 269.006683 130.839111 C 269.006683 202.219971 211.139099 260.087524 139.75827 260.087524 C 68.374641 260.087524 10.509876 202.219971 10.509876 130.839111 C 10.509876 59.466797 68.374641 1.60199 139.75827 1.60199 C 211.139099 1.60199 269.006683 59.466797 269.006683 130.839111 Z M 269.006683 130.839111"/>
        <path id="path20" fill="#e6f5f8" stroke="none" d="M 264.223541 130.839111 C 264.223541 199.582092 208.50119 255.301636 139.75827 255.301636 C 71.026619 255.301636 15.304255 199.582092 15.304255 130.839111 C 15.304255 62.107483 71.026619 6.382324 139.75827 6.382324 C 208.50119 6.382324 264.220734 62.104675 264.220734 130.836365 Z M 264.223541 130.839111"/>
        <path id="path21" fill="#d0e8f0" stroke="none" d="M 241.479111 133.237732 C 241.479111 189.419006 195.942337 234.958557 139.75827 234.958557 C 83.582657 234.958557 38.03463 189.419006 38.03463 133.234924 C 38.03463 77.062134 83.585472 31.514099 139.75827 31.514099 C 195.942337 31.514099 241.479111 77.064941 241.479111 133.234924 Z M 241.479111 133.237732"/>
        <path id="path22" fill="#ee794b" stroke="none" d="M 79.922829 181.10553 C 79.922829 181.10553 88.301025 316.336365 88.301025 318.734924 C 88.301025 319.922974 89.500328 322.318787 83.506645 324.717346 C 77.524223 327.104736 58.377674 331.896301 58.377674 331.896301 L 87.10173 331.896301 C 100.265862 331.896301 100.265862 321.122314 100.265862 318.734924 C 100.265862 316.336365 103.852501 264.881958 103.852501 264.881958 C 103.852501 264.881958 105.048981 325.916687 105.048981 328.301208 C 105.048981 330.699768 103.852501 334.28363 95.48275 336.68219 C 89.500328 337.881531 71.541809 341.46814 71.541809 341.46814 L 99.069382 341.46814 C 115.82859 341.46814 115.82859 330.699768 115.82859 330.699768 L 119.412422 276.846741 C 119.412422 276.846741 120.611717 330.699768 120.611717 336.68219 C 120.611717 341.46814 117.025085 345.063232 103.852501 347.447754 C 95.48275 349.846375 84.70594 352.242126 84.70594 352.242126 L 115.82859 352.242126 C 131.377258 351.045654 133.775848 340.266052 133.775848 340.266052 L 160.101303 206.234497 Z M 79.922829 181.10553"/>
        <path id="path23" fill="#ee794b" stroke="none" d="M 199.593719 181.10553 C 199.593719 181.10553 191.223953 316.336365 191.223953 318.734924 C 191.223953 319.922974 190.024673 322.318787 196.009903 324.717346 C 201.989517 327.104736 221.136047 331.896301 221.136047 331.896301 L 192.412003 331.896301 C 179.247864 331.896301 179.247864 321.122314 179.247864 318.734924 C 179.247864 316.336365 175.664032 264.881958 175.664032 264.881958 C 175.664032 264.881958 174.464752 325.916687 174.464752 328.301208 C 174.464752 330.699768 175.664032 334.28363 184.042252 336.68219 L 207.971924 341.46814 L 180.449982 341.46814 C 163.699203 341.46814 163.699203 330.699768 163.699203 330.699768 L 160.104111 276.846741 C 160.104111 276.846741 158.904831 330.699768 158.904831 336.68219 C 158.904831 341.46814 162.502731 345.063232 175.66687 347.447754 C 184.045074 349.846375 194.810593 352.242126 194.810593 352.242126 L 163.699203 352.242126 C 148.136459 351.045654 145.737869 340.266052 145.737869 340.266052 L 119.415237 206.237305 Z M 200.790207 115.287659 C 200.790207 148.797668 173.265442 175.123108 140.954758 175.123108 C 108.646881 175.123108 81.119308 147.598328 81.119308 115.287659 C 81.119308 82.979797 108.646881 55.452209 140.954758 55.452209 C 173.265442 55.452209 200.790207 81.780518 200.790207 115.287659 Z M 200.790207 115.287659"/>
        <clipPath id="clipPath1">
            <path d="M 77.777596 112.517456 L 201.648865 112.517456 L 201.648865 256.09552 L 77.777596 256.09552 Z M 77.777596 112.517456"/>
        </clipPath>
        <g id="Group" clip-path="url(#clipPath1)">
            <clipPath id="clipPath2">
                <path d="M 200.790207 112.891846 L 193.611298 276.846802 L 85.905243 276.846802 L 79.922829 112.891846"/>
            </clipPath>
            <g id="g1" clip-path="url(#clipPath2)">
                <path id="path24" fill="#ee794b" stroke="none" d="M 247.461533 147.59552 C 247.461533 206.420349 199.779526 254.105103 140.954758 254.105103 C 82.132805 254.105103 34.447994 206.420349 34.447994 147.598328 C 34.447994 88.773621 82.132805 41.091614 140.954758 41.091614 C 199.779526 41.091614 247.461533 88.773621 247.461533 147.598328 Z M 247.461533 147.59552"/>
            </g>
        </g>
        <g id="g2">
            <clipPath id="clipPath3">
                <path d="M -40.46315 -2.90802 L 319.889633 -2.90802 L 319.889633 357.444702 L -40.46315 357.444702 Z"/>
            </clipPath>
            <g id="g3" clip-path="url(#clipPath3)">
                <path id="path25" fill="#e34e3b" stroke="none" d="M 197.206375 181.10553 C 197.206375 181.10553 204.385284 117.674988 194.807785 93.745361 C 176.860535 51.857117 134.972336 55.452209 134.972336 55.452209 C 134.972336 55.452209 158.902023 65.02124 160.101303 100.927063 C 161.300613 126.05603 160.101303 163.158264 160.101303 163.158264 Z M 197.206375 181.10553"/>
            </g>
        </g>
        <g id="g4">
            <clipPath id="clipPath4">
                <path d="M -40.46315 -2.90802 L 319.889633 -2.90802 L 319.889633 357.444702 L -40.46315 357.444702 Z"/>
            </clipPath>
            <g id="g5" clip-path="url(#clipPath4)">
                <path id="path26" fill="#fbdfc3" stroke="none" d="M 124.195534 82.979797 C 124.193207 87.603821 120.442787 91.350464 115.818748 91.348145 C 111.194702 91.345825 107.448067 87.595398 107.450401 82.971313 C 107.452728 78.34729 111.203148 74.600647 115.827187 74.603027 C 120.451225 74.605347 124.197868 78.355774 124.195534 82.979797 Z M 124.195534 82.979797"/>
            </g>
        </g>
        <path id="path27" fill="#010101" stroke="none" d="M 161.300613 205.035217 C 161.300613 225.381042 151.723114 238.556458 139.75827 238.556458 C 127.793434 238.556458 118.21312 222.993713 118.21312 202.650696 C 118.21312 202.650696 127.793434 221.794434 140.954758 221.794434 C 154.118881 221.794434 161.300613 205.035217 161.300613 205.035217 Z M 161.300613 205.035217"/>
        <path id="path28" fill="#ffffff" stroke="none" d="M 161.300613 205.035217 C 161.300613 218.210632 151.723114 225.381042 139.75827 225.381042 C 127.793434 225.381042 119.412422 215.812012 119.412422 203.847168 C 119.412422 203.847168 128.989929 215.812012 142.154053 215.812012 C 155.318192 215.812012 161.300613 205.035217 161.300613 205.035217 Z M 161.300613 205.035217"/>
        <path id="path29" fill="#e9654b" stroke="none" d="M 218.737457 148.797668 C 218.737457 169.284302 202.133072 185.888672 181.646454 185.888672 C 161.157028 185.888672 144.541382 169.284302 144.541382 148.797668 C 144.541382 128.308228 161.157028 111.692566 181.646454 111.692566 C 202.133072 111.692566 218.737457 128.308228 218.737457 148.797668 Z M 134.972336 148.797668 C 134.972336 169.284302 118.356705 185.888672 97.867271 185.888672 C 77.380653 185.888672 60.776264 169.284302 60.776264 148.797668 C 60.776264 128.308228 77.380653 111.692566 97.870079 111.692566 C 118.356705 111.692566 134.975159 128.308228 134.975159 148.797668 Z M 134.972336 148.797668"/>
        <path id="path30" fill="#ffffff" stroke="none" d="M 210.370514 148.797668 C 210.370514 164.656006 197.504807 177.521729 181.646454 177.521729 C 165.788132 177.521729 152.919601 164.656006 152.919601 148.797668 C 152.919601 132.92804 165.785324 120.073608 181.646454 120.073608 C 197.501984 120.073608 210.370514 132.92804 210.370514 148.797668 Z M 124.195534 148.797668 C 124.195534 164.656006 111.34108 177.521729 95.48275 177.521729 C 79.613144 177.521729 66.758682 164.656006 66.758682 148.797668 C 66.757187 141.179077 69.78299 133.872192 75.17012 128.485046 C 80.557243 123.0979 87.864189 120.072144 95.48275 120.073608 C 111.34108 120.073608 124.198349 132.92804 124.198349 148.797668 Z M 124.195534 148.797668"/>
        <path id="path31" fill="#010101" stroke="none" d="M 103.852501 145.202576 C 103.854836 149.828186 100.106926 153.579834 95.481339 153.582214 C 90.855743 153.584534 87.104057 149.836609 87.10173 145.210999 C 87.09861 140.585449 90.845886 136.83313 95.471481 136.830017 C 100.097076 136.826904 103.849388 140.574158 103.852501 145.199768 Z M 190.024673 145.202576 C 190.080704 148.231934 188.496826 151.055481 185.882462 152.586853 C 183.268097 154.118225 180.03064 154.118774 177.415756 152.588257 C 174.800873 151.0578 173.216049 148.234741 173.271072 145.205383 C 173.353256 140.638855 177.077805 136.979431 181.645096 136.977905 C 186.212402 136.976379 189.939423 140.63324 190.024673 145.199768 Z M 190.024673 145.202576"/>
        <path id="path32" fill="#b6cfea" stroke="none" d="M 8.122535 163.158264 C 6.507331 163.25824 4.926913 162.660095 3.782603 161.515808 C 2.638296 160.37146 2.040173 158.791077 2.140119 157.175842 L 2.140119 109.308044 C 2.039056 107.692261 2.635611 106.110657 3.778597 104.964111 C 4.925157 103.821167 6.506741 103.224609 8.122535 103.325623 C 9.737744 103.225708 11.318163 103.823853 12.462467 104.96814 C 13.606777 106.112427 14.2049 107.692871 14.104954 109.308044 L 14.104954 157.17865 C 14.203487 158.783386 13.598207 160.368347 12.455218 161.51416 C 11.312121 162.657959 9.733926 163.257507 8.119721 163.161072 Z M 269.006683 163.158264 C 267.391754 163.255798 265.812775 162.654907 264.671173 161.508545 C 263.528137 160.366089 262.92868 158.789124 263.024261 157.175842 L 263.024261 109.308044 C 262.927246 107.690735 263.527832 106.109314 264.673981 104.964111 C 265.816284 103.821655 267.394287 103.224915 269.006683 103.325623 C 270.61908 103.224915 272.197052 103.821655 273.339325 104.964111 C 274.493591 106.109924 275.084808 107.694946 274.989105 109.308044 L 274.989105 157.17865 C 275.089905 158.794067 274.488586 160.374451 273.339325 161.51416 C 272.197266 162.659546 270.618347 163.259338 269.003876 163.161072 Z M 269.006683 163.158264"/>
        <path id="path33" fill="#ffffff" stroke="none" d="M 105.051796 35.109192 C 105.051796 38.413208 102.373383 41.091614 99.069382 41.091614 C 95.765388 41.091614 93.08696 38.413208 93.08696 35.109192 C 93.08696 31.805176 95.765388 29.12677 99.069382 29.12677 C 102.373383 29.12677 105.051796 31.805176 105.051796 35.109192 Z M 55.993153 196.665466 C 54.674553 196.83197 53.351528 196.391968 52.395256 195.468933 C 38.03463 177.521729 30.852915 154.78009 30.852915 132.038452 C 30.788801 113.131531 35.745449 94.546509 45.216347 78.182617 C 54.816998 62.606873 67.930214 49.494629 83.506645 39.895142 C 85.556282 38.975952 87.963203 39.456238 89.503143 41.091614 C 90.413261 43.138733 89.931274 45.537354 88.301025 47.074036 C 58.079742 64.148682 39.346066 96.128113 39.231117 130.839111 C 39.197834 152.124573 46.368729 172.794861 59.576969 189.486572 C 60.776264 190.685852 60.776264 194.272461 58.377674 195.468933 C 57.181179 196.668274 57.181179 196.668274 55.993153 196.668274 Z M 55.993153 196.665466"/>
        <g id="g6">
            <clipPath id="clipPath5">
                <path d="M -40.46315 -2.90802 L 319.889633 -2.90802 L 319.889633 357.444702 L -40.46315 357.444702 Z"/>
            </clipPath>
            <g id="g7" clip-path="url(#clipPath5)">
                <path id="path34" fill="#e9654b" stroke="none" d="M 193.611298 252.905823 L 193.611298 243.342407 C 176.860535 252.90863 158.902023 262.486145 137.370926 262.486145 C 113.43 262.486145 97.870079 251.720581 82.318604 243.342407 L 83.506645 252.90863 C 83.506645 252.90863 101.467979 272.066467 138.558975 272.066467 C 173.265442 270.867188 193.611298 252.90863 193.611298 252.90863 Z M 193.611298 252.905823"/>
            </g>
        </g>
    </g>
</svg>
